<?xml version="1.0" standalone="no"?>
<!DOCTYPE svg PUBLIC "-//W3C//DTD SVG 20010904//EN"
 "http://www.w3.org/TR/2001/REC-SVG-20010904/DTD/svg10.dtd">
<svg version="1.0" xmlns="http://www.w3.org/2000/svg"
 width="579.000000pt" height="100.000000pt" viewBox="0 0 579.000000 100.000000"
 preserveAspectRatio="xMidYMid meet">

<g transform="translate(0.000000,100.000000) scale(0.100000,-0.100000)"
fill="#000000" stroke="none">
<path d="M1544 842 c-73 -35 -79 -59 -79 -337 0 -217 2 -244 19 -279 26 -52
89 -81 159 -73 100 12 137 61 137 185 l0 82 -50 0 -50 0 0 -73 c0 -80 -9 -97
-51 -97 -54 0 -59 22 -59 255 0 234 5 255 60 255 37 0 50 -23 50 -89 l0 -51
50 0 50 0 0 68 c0 108 -43 159 -142 168 -39 4 -64 0 -94 -14z"/>
<path d="M2326 850 c-75 -23 -117 -113 -95 -208 14 -63 36 -96 114 -170 90
-84 115 -149 79 -200 -18 -26 -65 -30 -84 -7 -6 8 -14 32 -17 55 l-6 40 -50 0
-50 0 6 -54 c11 -110 54 -151 159 -151 52 0 73 5 95 21 46 35 67 80 67 149 0
84 -27 135 -119 223 -86 84 -110 135 -84 181 9 17 25 27 44 29 36 4 55 -18 55
-65 0 -33 0 -33 50 -33 l50 0 0 49 c0 109 -100 175 -214 141z"/>
<path d="M2696 850 c-75 -23 -117 -113 -95 -208 14 -63 36 -96 114 -170 90
-84 115 -149 79 -200 -18 -26 -65 -30 -84 -7 -6 8 -14 32 -17 55 l-6 40 -50 0
-50 0 6 -54 c11 -110 54 -151 159 -151 52 0 73 5 95 21 46 35 67 80 67 149 0
84 -27 135 -119 223 -86 84 -110 135 -84 181 9 17 25 27 44 29 36 4 55 -18 55
-65 0 -33 0 -33 50 -33 l50 0 0 49 c0 109 -100 175 -214 141z"/>
<path d="M4685 845 c-22 -8 -41 -15 -42 -15 -1 0 -12 -17 -25 -37 -22 -37 -23
-44 -23 -288 0 -242 1 -251 23 -286 56 -91 218 -91 274 0 21 32 23 51 27 184
l3 147 -81 0 -81 0 0 -50 c0 -47 2 -50 25 -50 25 0 25 -1 25 -88 0 -96 -7
-112 -51 -112 -54 0 -59 22 -59 255 0 233 5 255 59 255 39 0 51 -17 51 -77 l0
-53 56 0 57 0 -6 66 c-7 75 -33 124 -74 143 -44 20 -114 23 -158 6z"/>
<path d="M5475 850 c-42 -13 -81 -57 -94 -105 -14 -53 -14 -423 0 -481 34
-136 252 -156 305 -28 11 25 14 92 14 271 0 260 -5 284 -61 325 -29 22 -120
32 -164 18z m103 -102 c9 -9 12 -77 12 -243 0 -248 -1 -255 -51 -255 -54 0
-59 22 -59 255 0 174 3 214 16 233 17 24 62 30 82 10z"/>
<path d="M121 518 c-30 -183 -56 -339 -59 -345 -3 -9 10 -13 46 -13 56 0 56 0
68 82 l6 48 63 0 63 0 9 -62 8 -63 53 -3 c42 -2 52 0 52 12 0 17 -96 617 -105
654 -5 20 -11 22 -78 22 l-73 0 -53 -332z m149 44 c11 -79 20 -150 20 -158 0
-10 -13 -14 -45 -14 -54 0 -53 -9 -25 175 11 72 20 137 21 145 1 28 8 -5 29
-148z"/>
<path d="M490 505 l0 -345 50 0 50 0 1 243 0 242 64 -240 c36 -132 65 -241 65
-242 0 -2 25 -3 55 -3 l55 0 0 345 0 345 -45 0 -45 0 0 -202 c0 -114 -4 -198
-9 -192 -4 5 -30 96 -56 202 l-47 192 -69 0 -69 0 0 -345z"/>
<path d="M941 518 c-30 -183 -56 -339 -59 -345 -3 -9 10 -13 46 -13 56 0 56 0
68 82 l6 48 63 0 63 0 9 -62 8 -63 53 -3 c42 -2 52 0 52 12 0 17 -96 617 -105
654 -5 20 -11 22 -78 22 l-73 0 -53 -332z m149 44 c11 -79 20 -150 20 -158 0
-10 -13 -14 -45 -14 -54 0 -53 -9 -25 175 11 72 20 137 21 145 1 28 8 -5 29
-148z"/>
<path d="M1881 518 c-30 -183 -56 -339 -59 -345 -3 -9 10 -13 46 -13 56 0 56
0 68 82 l6 48 63 0 63 0 9 -62 8 -63 53 -3 c42 -2 52 0 52 12 0 17 -96 617
-105 654 -5 20 -11 22 -78 22 l-73 0 -53 -332z m149 44 c11 -79 20 -150 20
-158 0 -10 -13 -14 -45 -14 -54 0 -53 -9 -25 175 11 72 20 137 21 145 1 28 8
-5 29 -148z"/>
<path d="M2970 505 l0 -345 150 0 150 0 0 50 0 50 -95 0 -95 0 0 105 0 105 75
0 75 0 0 50 0 50 -75 0 -75 0 0 90 0 90 95 0 95 0 0 50 0 50 -150 0 -150 0 0
-345z"/>
<path d="M3300 800 l0 -50 60 0 60 0 0 -295 0 -295 50 0 50 0 0 295 0 295 60
0 60 0 0 50 0 50 -170 0 -170 0 0 -50z"/>
<path d="M3681 518 c-30 -183 -56 -339 -59 -345 -3 -9 10 -13 46 -13 56 0 56
0 68 82 l6 48 63 0 63 0 9 -62 8 -63 53 -3 c42 -2 52 0 52 12 0 17 -96 617
-105 654 -5 20 -11 22 -78 22 l-73 0 -53 -332z m149 44 c11 -79 20 -150 20
-158 0 -10 -13 -14 -45 -14 -54 0 -53 -9 -25 175 11 72 20 137 21 145 1 28 8
-5 29 -148z"/>
<path d="M4231 518 c-30 -183 -56 -339 -59 -345 -3 -9 10 -13 46 -13 56 0 56
0 68 82 l6 48 63 0 63 0 9 -62 8 -63 53 -3 c42 -2 52 0 52 12 0 17 -96 617
-105 654 -5 20 -11 22 -78 22 l-73 0 -53 -332z m149 44 c11 -79 20 -150 20
-158 0 -10 -13 -14 -45 -14 -54 0 -53 -9 -25 175 11 72 20 137 21 145 1 28 8
-5 29 -148z"/>
<path d="M4980 505 l0 -345 55 0 55 0 0 150 0 150 33 0 c65 0 77 -30 77 -186
l0 -114 53 0 54 0 -4 138 c-5 145 -14 186 -45 203 -19 10 -19 12 8 41 27 27
29 36 32 121 3 83 1 95 -20 127 -31 47 -72 59 -195 59 l-103 1 0 -345z m198
233 c7 -7 12 -41 12 -85 0 -80 -10 -93 -69 -93 l-31 0 0 95 0 95 38 0 c21 0
43 -5 50 -12z"/>
</g>
</svg>
